Coordinates
nRows=6
nColumns=34

# SIMM Motion File Header:
name Coordinates
datacolumns 34
datarows 6
otherdata 1
range 0.30200000000000005000 0.30700000000000000000

Units are S.I. units (second, meters, Newtons, ...)
Angles are in degrees.

endheader
time	pelvis_tz	pelvis_tx	pelvis_ty	pelvis_tilt	pelvis_list	pelvis_rotation	hip_flexion_r	hip_adduction_r	hip_rotation_r	knee_r_tx	knee_r_ty	knee_angle_r	tib_pat_r_tx	tib_pat_r_ty	tib_pat_r_r1	ankle_angle_r	subtalar_angle_r	mtp_angle_r	hip_flexion_l	hip_adduction_l	hip_rotation_l	knee_l_tx	knee_l_ty	knee_angle_l	tib_pat_l_tx	tib_pat_l_ty	tib_pat_l_r1	ankle_angle_l	subtalar_angle_l	mtp_angle_l	lumbar_extension	lumbar_bending	lumbar_rotation
      0.30200000000000005000	     -0.24727893904148801000	      0.14751858778289734000	      0.92661770857571901000	     -1.84193184204185250000	      2.40635054322348820000	     -2.52739944266169660000	      1.79273677960498200000	      0.41748200525859969000	     16.38168467072310700000	     -0.00402193033606437250	     -0.41354330243506965000	     -5.40282166106675450000	      0.04597931090973411700	     -0.02109100186769328700	      5.62237014710330210000	      8.16043290628559960000	     -0.00000000000000321028	     -0.00000000000003760078	     17.41494399827384900000	     -1.06796283865357760000	     -7.48413966028434090000	      0.00416303193386469410	     -0.42274220003604196000	    -58.20996624260410400000	      0.03608325227523994500	     -0.01913992216595224500	     17.35708125353635700000	      0.91622543689231883000	      0.00000000000002932050	     -0.00000000000002310308	     -2.17683642340136090000	      0.16210972093975276000	      3.16335206272286220000
      0.30300000000000005000	     -0.24723870446587809000	      0.14844154364789289000	      0.92662733815958964000	     -1.83404548001398000000	      2.44705210358428050000	     -2.54285877360041200000	      1.70687113372281260000	      0.37337582274177805000	     16.39546072888821700000	     -0.00402628685361148320	     -0.41354089318418358000	     -5.37346565902269280000	      0.04598329799719405600	     -0.02109235171791351900	      5.59626632867788750000	      8.20428915802707160000	     -0.00000000000000323388	     -0.00000000000003813434	     17.50733373152320400000	     -1.04473485886863290000	     -7.53530539681708510000	      0.00415323150205232190	     -0.42270481953291489000	    -58.07023255174646400000	      0.03611730471484938400	     -0.01914421287982628900	     17.35369990282157800000	      1.01670073937361320000	      0.00000000000002973785	     -0.00000000000002350844	     -2.19502738978284610000	      0.10689118472561972000	      3.18547511007148200000
      0.30400000000000005000	     -0.24720051693009529000	      0.14936401348255515000	      0.92663507641008080000	     -1.82628457494265750000	      2.48688214649382330000	     -2.55785051939289510000	      1.62119336071529510000	      0.33000000441843808000	     16.40830838035963500000	     -0.00403061438352878430	     -0.41353849643991664000	     -5.34423828457353970000	      0.04598725298719779500	     -0.02109369122369683700	      5.57021618445568660000	      8.24812882752804020000	     -0.00000000000000325169	     -0.00000000000003867194	     17.59903091982568700000	     -1.02195957162178420000	     -7.58614578581920180000	      0.00414308109903671880	     -0.42266670953975138000	    -57.92753246038393700000	      0.03615203629390739000	     -0.01914859770924924300	     17.35019080319781200000	      1.11518150753907850000	      0.00000000000003013853	     -0.00000000000002390863	     -2.21316601132890240000	      0.05295366862046668700	      3.20677733102505200000
      0.30499999999999999000	     -0.24716437643413966000	      0.15028599728688408000	      0.92664092332719250000	     -1.81864912682788500000	      2.52584067195211540000	     -2.57237468003914540000	      1.53570346058243380000	      0.28735455028858126000	     16.42022762513735400000	     -0.00403491292581627590	     -0.41353611220226882000	     -5.31513953771929600000	      0.04599117587974534800	     -0.02109502038504323900	      5.54421971443670090000	      8.29195191478850190000	     -0.00000000000000326373	     -0.00000000000003921358	     17.69003556318129400000	     -0.99963697691303177000	     -7.63666082729068750000	      0.00413258072481788740	     -0.42262787005655139000	    -57.78186596851652000000	      0.03618744701241394900	     -0.01915307665422110600	     17.34655395466506200000	      1.21166774138871290000	      0.00000000000003052255	     -0.00000000000002430363	     -2.23125228803953050000	      0.00029717262429486413	      3.22725872558357270000
      0.30599999999999999000	     -0.24712823593818403000	      0.15120798109121303000	      0.92664677024430420000	     -1.81101367871311210000	      2.56479919741040830000	     -2.58689884068539570000	      1.45021356044956810000	      0.24470909615872288000	     16.43214686991507600000	     -0.00403921146810376840	     -0.41353372796462107000	     -5.28604079086505150000	      0.04599509877229289400	     -0.02109634954638964200	      5.51822324441771350000	      8.33577500204896720000	     -0.00000000000000327577	     -0.00000000000003975522	     17.78104020653690800000	     -0.97731438220427858000	     -7.68717586876217670000	      0.00412208035059905430	     -0.42258903057335145000	    -57.63619947664909700000	      0.03622285773092051600	     -0.01915755559919296900	     17.34291710613231200000	      1.30815397523835000000	      0.00000000000003090657	     -0.00000000000002469863	     -2.24933856475015940000	     -0.05235932337187838200	      3.24774012014209390000
      0.30700000000000000000	     -0.24709628323764599000	      0.15212901419004793000	      0.92664885060921387000	     -1.80359287179947980000	      2.60190894042193220000	     -2.60048728945195020000	      1.36505497924263520000	      0.20364610763941376000	     16.44221426334896900000	     -0.00404345107385748610	     -0.41353136949198005000	     -5.25720975345068900000	      0.04599895619850377000	     -0.02109765753187586500	      5.49234641338003020000	      8.37924681955546550000	     -0.00000000000000329015	     -0.00000000000004029039	     17.87060108144144600000	     -0.95595940034199234000	     -7.73695772229442190000	      0.00411085413252398110	     -0.42254876608369696000	    -57.48466229917512700000	      0.03625960046841057700	     -0.01916222207437645900	     17.33901041083661800000	      1.40029812252878270000	      0.00000000000003122125	     -0.00000000000002511743	     -2.26738150402609940000	     -0.10231368979978543000	      3.26662555257428710000
